# Created by Metasequoia

mtllib earth.mtl

v 0.000000 0.600000 0.000000
v 0.000000 0.570634 0.185410
v 0.108981 0.570634 0.150000
v 0.176336 0.570634 0.057295
v 0.176336 0.570634 -0.057295
v 0.108981 0.570634 -0.150000
v 0.000000 0.570634 -0.185410
v -0.108981 0.570634 -0.150000
v -0.176336 0.570634 -0.057295
v -0.176336 0.570634 0.057295
v -0.108981 0.570634 0.150000
v 0.000000 0.485410 0.352671
v 0.207295 0.485410 0.285317
v 0.335410 0.485410 0.108981
v 0.335410 0.485410 -0.108981
v 0.207295 0.485410 -0.285317
v 0.000000 0.485410 -0.352671
v -0.207295 0.485410 -0.285317
v -0.335410 0.485410 -0.108981
v -0.335410 0.485410 0.108981
v -0.207295 0.485410 0.285317
v 0.000000 0.352671 0.485410
v 0.285317 0.352671 0.392705
v 0.461653 0.352671 0.150000
v 0.461653 0.352671 -0.150000
v 0.285317 0.352671 -0.392705
v 0.000000 0.352671 -0.485410
v -0.285317 0.352671 -0.392705
v -0.461653 0.352671 -0.150000
v -0.461653 0.352671 0.150000
v -0.285317 0.352671 0.392705
v 0.000000 0.185410 0.570634
v 0.335410 0.185410 0.461653
v 0.542705 0.185410 0.176336
v 0.542705 0.185410 -0.176336
v 0.335410 0.185410 -0.461653
v 0.000000 0.185410 -0.570634
v -0.335410 0.185410 -0.461653
v -0.542705 0.185410 -0.176336
v -0.542705 0.185410 0.176336
v -0.335410 0.185410 0.461653
v 0.000000 0.000000 0.600000
v 0.352671 0.000000 0.485410
v 0.570634 0.000000 0.185410
v 0.570634 0.000000 -0.185410
v 0.352671 0.000000 -0.485410
v 0.000000 0.000000 -0.600000
v -0.352671 0.000000 -0.485410
v -0.570634 0.000000 -0.185410
v -0.570634 0.000000 0.185410
v -0.352671 0.000000 0.485410
v 0.000000 -0.185410 0.570634
v 0.335410 -0.185410 0.461653
v 0.542705 -0.185410 0.176336
v 0.542705 -0.185410 -0.176336
v 0.335410 -0.185410 -0.461653
v 0.000000 -0.185410 -0.570634
v -0.335410 -0.185410 -0.461653
v -0.542705 -0.185410 -0.176336
v -0.542705 -0.185410 0.176336
v -0.335410 -0.185410 0.461653
v 0.000000 -0.352671 0.485410
v 0.285317 -0.352671 0.392705
v 0.461653 -0.352671 0.150000
v 0.461653 -0.352671 -0.150000
v 0.285317 -0.352671 -0.392705
v 0.000000 -0.352671 -0.485410
v -0.285317 -0.352671 -0.392705
v -0.461653 -0.352671 -0.150000
v -0.461653 -0.352671 0.150000
v -0.285317 -0.352671 0.392705
v 0.000000 -0.485410 0.352671
v 0.207295 -0.485410 0.285317
v 0.335410 -0.485410 0.108981
v 0.335410 -0.485410 -0.108981
v 0.207295 -0.485410 -0.285317
v 0.000000 -0.485410 -0.352671
v -0.207295 -0.485410 -0.285317
v -0.335410 -0.485410 -0.108981
v -0.335410 -0.485410 0.108981
v -0.207295 -0.485410 0.285317
v 0.000000 -0.570634 0.185410
v 0.108981 -0.570634 0.150000
v 0.176336 -0.570634 0.057295
v 0.176336 -0.570634 -0.057295
v 0.108981 -0.570634 -0.150000
v 0.000000 -0.570634 -0.185410
v -0.108981 -0.570634 -0.150000
v -0.176336 -0.570634 -0.057295
v -0.176336 -0.570634 0.057295
v -0.108981 -0.570634 0.150000
v 0.000000 -0.600000 0.000000
# 92 vertices

vt 0.05000 1.00000
vt 0.10000 0.90000
vt 0.00000 0.90000
vt 0.15000 1.00000
vt 0.20000 0.90000
vt 0.25000 1.00000
vt 0.30000 0.90000
vt 0.35000 1.00000
vt 0.40000 0.90000
vt 0.45000 1.00000
vt 0.50000 0.90000
vt 0.55000 1.00000
vt 0.60000 0.90000
vt 0.65000 1.00000
vt 0.70000 0.90000
vt 0.75000 1.00000
vt 0.80000 0.90000
vt 0.85000 1.00000
vt 0.90000 0.90000
vt 0.95000 1.00000
vt 1.00000 0.90000
vt 0.00000 0.10000
vt 0.10000 0.10000
vt 0.05000 0.00000
vt 0.20000 0.10000
vt 0.15000 0.00000
vt 0.30000 0.10000
vt 0.25000 0.00000
vt 0.40000 0.10000
vt 0.35000 0.00000
vt 0.50000 0.10000
vt 0.45000 0.00000
vt 0.60000 0.10000
vt 0.55000 0.00000
vt 0.70000 0.10000
vt 0.65000 0.00000
vt 0.80000 0.10000
vt 0.75000 0.00000
vt 0.90000 0.10000
vt 0.85000 0.00000
vt 1.00000 0.10000
vt 0.95000 0.00000
vt 0.10000 0.80000
vt 0.00000 0.80000
vt 0.20000 0.80000
vt 0.30000 0.80000
vt 0.40000 0.80000
vt 0.50000 0.80000
vt 0.60000 0.80000
vt 0.70000 0.80000
vt 0.80000 0.80000
vt 0.90000 0.80000
vt 1.00000 0.80000
vt 0.10000 0.70000
vt 0.00000 0.70000
vt 0.20000 0.70000
vt 0.30000 0.70000
vt 0.40000 0.70000
vt 0.50000 0.70000
vt 0.60000 0.70000
vt 0.70000 0.70000
vt 0.80000 0.70000
vt 0.90000 0.70000
vt 1.00000 0.70000
vt 0.10000 0.60000
vt 0.00000 0.60000
vt 0.20000 0.60000
vt 0.30000 0.60000
vt 0.40000 0.60000
vt 0.50000 0.60000
vt 0.60000 0.60000
vt 0.70000 0.60000
vt 0.80000 0.60000
vt 0.90000 0.60000
vt 1.00000 0.60000
vt 0.10000 0.50000
vt 0.00000 0.50000
vt 0.20000 0.50000
vt 0.30000 0.50000
vt 0.40000 0.50000
vt 0.50000 0.50000
vt 0.60000 0.50000
vt 0.70000 0.50000
vt 0.80000 0.50000
vt 0.90000 0.50000
vt 1.00000 0.50000
vt 0.10000 0.40000
vt 0.00000 0.40000
vt 0.20000 0.40000
vt 0.30000 0.40000
vt 0.40000 0.40000
vt 0.50000 0.40000
vt 0.60000 0.40000
vt 0.70000 0.40000
vt 0.80000 0.40000
vt 0.90000 0.40000
vt 1.00000 0.40000
vt 0.10000 0.30000
vt 0.00000 0.30000
vt 0.20000 0.30000
vt 0.30000 0.30000
vt 0.40000 0.30000
vt 0.50000 0.30000
vt 0.60000 0.30000
vt 0.70000 0.30000
vt 0.80000 0.30000
vt 0.90000 0.30000
vt 1.00000 0.30000
vt 0.10000 0.20000
vt 0.00000 0.20000
vt 0.20000 0.20000
vt 0.30000 0.20000
vt 0.40000 0.20000
vt 0.50000 0.20000
vt 0.60000 0.20000
vt 0.70000 0.20000
vt 0.80000 0.20000
vt 0.90000 0.20000
vt 1.00000 0.20000
# 119 texture vertices

vn 0.00000 1.00000 0.00000
vn 0.19792 0.94161 0.27241
vn -0.00000 0.94161 0.33671
vn 0.32023 0.94161 0.10405
vn 0.32023 0.94161 -0.10405
vn 0.19791 0.94161 -0.27241
vn 0.00000 0.94161 -0.33671
vn -0.19792 0.94161 -0.27241
vn -0.32023 0.94161 -0.10405
vn -0.32023 0.94161 0.10405
vn -0.19791 0.94161 0.27241
vn 0.00000 -0.94161 0.33671
vn 0.19791 -0.94161 0.27241
vn 0.00000 -1.00000 0.00000
vn 0.32023 -0.94161 0.10405
vn 0.32023 -0.94161 -0.10405
vn 0.19792 -0.94161 -0.27241
vn -0.00000 -0.94161 -0.33671
vn -0.19791 -0.94161 -0.27241
vn -0.32023 -0.94161 -0.10405
vn -0.32023 -0.94161 0.10405
vn -0.19792 -0.94161 0.27241
vn 0.35703 0.79438 0.49141
vn 0.00000 0.79438 0.60742
vn 0.57769 0.79438 0.18770
vn 0.57769 0.79438 -0.18770
vn 0.35703 0.79438 -0.49141
vn 0.00000 0.79438 -0.60742
vn -0.35703 0.79438 -0.49141
vn -0.57769 0.79438 -0.18770
vn -0.57769 0.79438 0.18770
vn -0.35703 0.79438 0.49141
vn 0.48151 0.57351 0.66275
vn 0.00000 0.57351 0.81920
vn 0.77910 0.57351 0.25315
vn 0.77910 0.57351 -0.25315
vn 0.48151 0.57351 -0.66275
vn 0.00000 0.57351 -0.81920
vn -0.48151 0.57351 -0.66275
vn -0.77910 0.57351 -0.25315
vn -0.77910 0.57351 0.25315
vn -0.48151 0.57351 0.66275
vn 0.56065 0.30032 0.77167
vn 0.00000 0.30032 0.95384
vn 0.90715 0.30032 0.29475
vn 0.90715 0.30032 -0.29475
vn 0.56065 0.30032 -0.77167
vn -0.00000 0.30032 -0.95384
vn -0.56065 0.30032 -0.77167
vn -0.90715 0.30032 -0.29475
vn -0.90715 0.30032 0.29475
vn -0.56065 0.30032 0.77167
vn 0.58779 0.00000 0.80902
vn -0.00000 -0.00000 1.00000
vn 0.95106 -0.00000 0.30901
vn 0.95106 0.00000 -0.30901
vn 0.58779 -0.00000 -0.80902
vn 0.00000 -0.00000 -1.00000
vn -0.58779 0.00000 -0.80902
vn -0.95106 -0.00000 -0.30901
vn -0.95106 0.00000 0.30901
vn -0.58779 -0.00000 0.80902
vn 0.56065 -0.30032 0.77167
vn -0.00000 -0.30032 0.95384
vn 0.90715 -0.30032 0.29475
vn 0.90715 -0.30032 -0.29475
vn 0.56065 -0.30032 -0.77167
vn 0.00000 -0.30032 -0.95384
vn -0.56065 -0.30032 -0.77167
vn -0.90715 -0.30032 -0.29475
vn -0.90715 -0.30032 0.29475
vn -0.56065 -0.30032 0.77167
vn 0.48151 -0.57351 0.66275
vn 0.00000 -0.57351 0.81920
vn 0.77910 -0.57351 0.25315
vn 0.77910 -0.57351 -0.25315
vn 0.48151 -0.57351 -0.66275
vn -0.00000 -0.57351 -0.81920
vn -0.48151 -0.57351 -0.66275
vn -0.77910 -0.57351 -0.25315
vn -0.77910 -0.57351 0.25315
vn -0.48151 -0.57351 0.66275
vn 0.35703 -0.79438 0.49141
vn -0.00000 -0.79438 0.60742
vn 0.57769 -0.79438 0.18770
vn 0.57769 -0.79438 -0.18770
vn 0.35703 -0.79438 -0.49141
vn 0.00000 -0.79438 -0.60742
vn -0.35703 -0.79438 -0.49141
vn -0.57769 -0.79438 -0.18770
vn -0.57769 -0.79438 0.18770
vn -0.35703 -0.79438 0.49141
# 92 normal vertices

s 1
usemtl mat1
f 2/3/3 3/2/2 1/1/1
f 3/2/2 4/5/4 1/4/1
f 4/5/4 5/7/5 1/6/1
f 5/7/5 6/9/6 1/8/1
f 6/9/6 7/11/7 1/10/1
f 7/11/7 8/13/8 1/12/1
f 8/13/8 9/15/9 1/14/1
f 9/15/9 10/17/10 1/16/1
f 10/17/10 11/19/11 1/18/1
f 11/19/11 2/21/3 1/20/1
f 92/24/14 83/23/13 82/22/12
f 92/26/14 84/25/15 83/23/13
f 92/28/14 85/27/16 84/25/15
f 92/30/14 86/29/17 85/27/16
f 92/32/14 87/31/18 86/29/17
f 92/34/14 88/33/19 87/31/18
f 92/36/14 89/35/20 88/33/19
f 92/38/14 90/37/21 89/35/20
f 92/40/14 91/39/22 90/37/21
f 92/42/14 82/41/12 91/39/22
f 13/43/23 3/2/2 2/3/3
f 13/43/23 2/3/3 12/44/24
f 13/43/23 14/45/25 4/5/4
f 13/43/23 4/5/4 3/2/2
f 14/45/25 15/46/26 5/7/5
f 14/45/25 5/7/5 4/5/4
f 15/46/26 16/47/27 6/9/6
f 15/46/26 6/9/6 5/7/5
f 16/47/27 17/48/28 7/11/7
f 16/47/27 7/11/7 6/9/6
f 18/49/29 8/13/8 7/11/7
f 18/49/29 7/11/7 17/48/28
f 18/49/29 19/50/30 9/15/9
f 18/49/29 9/15/9 8/13/8
f 19/50/30 20/51/31 10/17/10
f 19/50/30 10/17/10 9/15/9
f 20/51/31 21/52/32 11/19/11
f 20/51/31 11/19/11 10/17/10
f 21/52/32 12/53/24 2/21/3
f 21/52/32 2/21/3 11/19/11
f 22/55/34 23/54/33 13/43/23
f 22/55/34 13/43/23 12/44/24
f 23/54/33 24/56/35 14/45/25
f 23/54/33 14/45/25 13/43/23
f 24/56/35 25/57/36 15/46/26
f 24/56/35 15/46/26 14/45/25
f 25/57/36 26/58/37 16/47/27
f 25/57/36 16/47/27 15/46/26
f 27/59/38 17/48/28 16/47/27
f 27/59/38 16/47/27 26/58/37
f 27/59/38 28/60/39 18/49/29
f 27/59/38 18/49/29 17/48/28
f 28/60/39 29/61/40 19/50/30
f 28/60/39 19/50/30 18/49/29
f 29/61/40 30/62/41 20/51/31
f 29/61/40 20/51/31 19/50/30
f 30/62/41 31/63/42 21/52/32
f 30/62/41 21/52/32 20/51/31
f 22/64/34 12/53/24 21/52/32
f 22/64/34 21/52/32 31/63/42
f 32/66/44 33/65/43 23/54/33
f 32/66/44 23/54/33 22/55/34
f 33/65/43 34/67/45 24/56/35
f 33/65/43 24/56/35 23/54/33
f 34/67/45 35/68/46 25/57/36
f 34/67/45 25/57/36 24/56/35
f 36/69/47 26/58/37 25/57/36
f 36/69/47 25/57/36 35/68/46
f 37/70/48 27/59/38 26/58/37
f 37/70/48 26/58/37 36/69/47
f 37/70/48 38/71/49 28/60/39
f 37/70/48 28/60/39 27/59/38
f 38/71/49 39/72/50 29/61/40
f 38/71/49 29/61/40 28/60/39
f 39/72/50 40/73/51 30/62/41
f 39/72/50 30/62/41 29/61/40
f 41/74/52 31/63/42 30/62/41
f 41/74/52 30/62/41 40/73/51
f 32/75/44 22/64/34 31/63/42
f 32/75/44 31/63/42 41/74/52
f 42/77/54 43/76/53 33/65/43
f 42/77/54 33/65/43 32/66/44
f 44/78/55 34/67/45 33/65/43
f 44/78/55 33/65/43 43/76/53
f 44/78/55 45/79/56 35/68/46
f 44/78/55 35/68/46 34/67/45
f 45/79/56 46/80/57 36/69/47
f 45/79/56 36/69/47 35/68/46
f 46/80/57 47/81/58 37/70/48
f 46/80/57 37/70/48 36/69/47
f 47/81/58 48/82/59 38/71/49
f 47/81/58 38/71/49 37/70/48
f 49/83/60 39/72/50 38/71/49
f 49/83/60 38/71/49 48/82/59
f 49/83/60 50/84/61 40/73/51
f 49/83/60 40/73/51 39/72/50
f 50/84/61 51/85/62 41/74/52
f 50/84/61 41/74/52 40/73/51
f 51/85/62 42/86/54 32/75/44
f 51/85/62 32/75/44 41/74/52
f 52/88/64 53/87/63 43/76/53
f 52/88/64 43/76/53 42/77/54
f 53/87/63 54/89/65 44/78/55
f 53/87/63 44/78/55 43/76/53
f 54/89/65 55/90/66 45/79/56
f 54/89/65 45/79/56 44/78/55
f 56/91/67 46/80/57 45/79/56
f 56/91/67 45/79/56 55/90/66
f 56/91/67 57/92/68 47/81/58
f 56/91/67 47/81/58 46/80/57
f 57/92/68 58/93/69 48/82/59
f 57/92/68 48/82/59 47/81/58
f 58/93/69 59/94/70 49/83/60
f 58/93/69 49/83/60 48/82/59
f 59/94/70 60/95/71 50/84/61
f 59/94/70 50/84/61 49/83/60
f 61/96/72 51/85/62 50/84/61
f 61/96/72 50/84/61 60/95/71
f 61/96/72 52/97/64 42/86/54
f 61/96/72 42/86/54 51/85/62
f 63/98/73 53/87/63 52/88/64
f 63/98/73 52/88/64 62/99/74
f 64/100/75 54/89/65 53/87/63
f 64/100/75 53/87/63 63/98/73
f 64/100/75 65/101/76 55/90/66
f 64/100/75 55/90/66 54/89/65
f 65/101/76 66/102/77 56/91/67
f 65/101/76 56/91/67 55/90/66
f 66/102/77 67/103/78 57/92/68
f 66/102/77 57/92/68 56/91/67
f 68/104/79 58/93/69 57/92/68
f 68/104/79 57/92/68 67/103/78
f 69/105/80 59/94/70 58/93/69
f 69/105/80 58/93/69 68/104/79
f 69/105/80 70/106/81 60/95/71
f 69/105/80 60/95/71 59/94/70
f 70/106/81 71/107/82 61/96/72
f 70/106/81 61/96/72 60/95/71
f 71/107/82 62/108/74 52/97/64
f 71/107/82 52/97/64 61/96/72
f 73/109/83 63/98/73 62/99/74
f 73/109/83 62/99/74 72/110/84
f 73/109/83 74/111/85 64/100/75
f 73/109/83 64/100/75 63/98/73
f 74/111/85 75/112/86 65/101/76
f 74/111/85 65/101/76 64/100/75
f 75/112/86 76/113/87 66/102/77
f 75/112/86 66/102/77 65/101/76
f 76/113/87 77/114/88 67/103/78
f 76/113/87 67/103/78 66/102/77
f 78/115/89 68/104/79 67/103/78
f 78/115/89 67/103/78 77/114/88
f 78/115/89 79/116/90 69/105/80
f 78/115/89 69/105/80 68/104/79
f 79/116/90 80/117/91 70/106/81
f 79/116/90 70/106/81 69/105/80
f 80/117/91 81/118/92 71/107/82
f 80/117/91 71/107/82 70/106/81
f 81/118/92 72/119/84 62/108/74
f 81/118/92 62/108/74 71/107/82
f 82/22/12 83/23/13 73/109/83
f 82/22/12 73/109/83 72/110/84
f 83/23/13 84/25/15 74/111/85
f 83/23/13 74/111/85 73/109/83
f 84/25/15 85/27/16 75/112/86
f 84/25/15 75/112/86 74/111/85
f 85/27/16 86/29/17 76/113/87
f 85/27/16 76/113/87 75/112/86
f 87/31/18 77/114/88 76/113/87
f 87/31/18 76/113/87 86/29/17
f 87/31/18 88/33/19 78/115/89
f 87/31/18 78/115/89 77/114/88
f 88/33/19 89/35/20 79/116/90
f 88/33/19 79/116/90 78/115/89
f 89/35/20 90/37/21 80/117/91
f 89/35/20 80/117/91 79/116/90
f 90/37/21 91/39/22 81/118/92
f 90/37/21 81/118/92 80/117/91
f 82/41/12 72/119/84 81/118/92
f 82/41/12 81/118/92 91/39/22
# 180 elements

